<svg xmlns="http://www.w3.org/2000/svg" width="28.805" height="25.565" viewBox="0 0 28.805 25.565"><g transform="translate(-1040.098 -1167.393)"><path d="M15.21,40.719a.207.207,0,0,0,0,.414A10.376,10.376,0,0,1,25.584,51.506a.2.2,0,1,0,.409,0A10.376,10.376,0,0,1,36.366,41.132a.207.207,0,0,0,0-.414A10.373,10.373,0,0,1,25.993,30.35a.2.2,0,1,0-.409,0A10.373,10.373,0,0,1,15.21,40.719Z" transform="translate(1032.332 1141.247)" fill="#0040ef"/><path d="M63.74,21.934a.205.205,0,0,0,0,.41,4,4,0,0,1,4,4,.205.205,0,0,0,.41,0,4,4,0,0,1,4-4,.205.205,0,0,0,0-.41,4,4,0,0,1-4-4,.205.205,0,0,0-.41,0,4,4,0,0,1-4,4Z" transform="translate(976.561 1149.657)" fill="#0040ef"/></g></svg>