<?xml version="1.0" encoding="utf-8"?>
<!-- Generator: Adobe Illustrator 25.0.1, SVG Export Plug-In . SVG Version: 6.00 Build 0)  -->
<svg version="1.1" id="Capa_1" xmlns="http://www.w3.org/2000/svg" xmlns:xlink="http://www.w3.org/1999/xlink" x="0px" y="0px"
	 viewBox="0 0 1056 1056" style="enable-background:new 0 0 1056 1056;" xml:space="preserve">
<style type="text/css">
	.st0{fill:#FFFFFF;}
	.st1{fill:#6BF4F4;}
	.st2{fill:#73D6FF;}
	.st3{fill:#008BF5;}
	.st4{fill:none;}
</style>
<g>
	<path class="st0" d="M821.8,109.6l213.7,244.29H763.18L821.8,109.6z"/>
	<path class="st1" d="M528,109.6l235.18,244.29L821.8,109.6H528z"/>
	<path class="st2" d="M1035.52,353.89L528,958.4l235.19-604.51H1035.52z"/>
	<path class="st2" d="M234.2,109.6L20.5,353.88h272.32L234.2,109.6z"/>
	<path class="st3" d="M528.01,109.6L292.82,353.88L234.2,109.6H528.01z"/>
	<path class="st2" d="M528,109.6L292.82,353.88h470.37L528,109.6z"/>
	<g id="Path_20193_1_">
		<path class="st1" d="M292.82,353.89L528,958.4l235.19-604.51H292.82z"/>
		<path d="M528,975.25c-6.95,0-13.17-4.26-15.69-10.74L277.12,359.99c-2.01-5.18-1.34-11.02,1.8-15.6
			c3.13-4.59,8.34-7.33,13.89-7.33h470.37c5.56,0,10.76,2.75,13.89,7.33c3.14,4.59,3.81,10.42,1.8,15.6L543.69,964.51
			C541.17,970.99,534.93,975.25,528,975.25z M317.43,370.72L528,911.98l210.58-541.25H317.43z"/>
	</g>
	<g id="Path_20194_1_">
		<path class="st3" d="M20.49,353.89L528,958.4L292.82,353.89H20.49z"/>
		<path d="M1050.65,361.18c0.06-0.12,0.13-0.22,0.18-0.33c0.01-0.01,0.01-0.03,0.02-0.04c0.32-0.7,0.58-1.43,0.8-2.16
			c0.01-0.03,0.03-0.07,0.04-0.1c1.08-3.76,0.83-7.85-0.83-11.54c-0.02-0.04-0.03-0.08-0.05-0.12c-0.01-0.03-0.02-0.07-0.04-0.1
			c-0.71-1.53-1.64-2.9-2.74-4.12L834.47,98.51c-0.21-0.25-0.5-0.4-0.72-0.63c-0.71-0.72-1.44-1.38-2.26-1.96
			c-0.41-0.29-0.83-0.55-1.27-0.8c-0.8-0.47-1.63-0.85-2.5-1.18c-0.47-0.18-0.93-0.36-1.42-0.5c-0.96-0.27-1.95-0.41-2.95-0.51
			c-0.41-0.04-0.8-0.13-1.22-0.14c-0.11,0-0.22-0.04-0.33-0.04H528H528H234.2c-0.12,0-0.24,0.04-0.36,0.04
			c-0.37,0.01-0.72,0.09-1.09,0.12c-1.05,0.09-2.07,0.25-3.07,0.53c-0.47,0.13-0.92,0.31-1.38,0.49c-0.87,0.33-1.7,0.72-2.51,1.18
			c-0.44,0.26-0.86,0.51-1.28,0.81c-0.81,0.57-1.54,1.23-2.24,1.95c-0.23,0.23-0.51,0.39-0.73,0.63L7.97,342.65
			c-1.09,1.22-2.02,2.59-2.74,4.12c-0.02,0.03-0.02,0.07-0.04,0.1c-0.02,0.04-0.03,0.08-0.05,0.12c-1.66,3.7-1.91,7.79-0.83,11.54
			c0.01,0.03,0.03,0.07,0.04,0.1c0.22,0.74,0.48,1.46,0.8,2.16c0.01,0.01,0.01,0.03,0.02,0.04c0.05,0.12,0.13,0.22,0.18,0.33
			c0.29,0.59,0.59,1.18,0.95,1.74c0.15,0.23,0.32,0.44,0.48,0.66c0.27,0.38,0.52,0.77,0.82,1.13l507.29,604.26
			c0.01,0.02,0.03,0.04,0.05,0.05l0.17,0.21c0.1,0.12,0.22,0.19,0.32,0.31c0.63,0.72,1.33,1.38,2.09,1.99
			c0.3,0.24,0.61,0.45,0.93,0.67c0.33,0.23,0.63,0.5,0.98,0.7c0.21,0.13,0.45,0.17,0.67,0.28c0.87,0.47,1.76,0.83,2.69,1.14
			c0.4,0.13,0.79,0.3,1.19,0.4c1.29,0.32,2.61,0.52,3.95,0.53c0.02,0,0.05,0.01,0.07,0.01c0,0,0.01,0,0.01,0c0,0,0.01,0,0.01,0
			c0.02,0,0.05-0.01,0.07-0.01c1.34-0.01,2.66-0.21,3.95-0.53c0.41-0.1,0.79-0.27,1.19-0.4c0.93-0.3,1.82-0.67,2.69-1.14
			c0.22-0.12,0.46-0.16,0.67-0.28c0.35-0.21,0.65-0.47,0.98-0.7c0.31-0.22,0.63-0.43,0.93-0.67c0.76-0.61,1.46-1.27,2.09-1.99
			c0.1-0.11,0.22-0.19,0.32-0.31l0.17-0.21c0.01-0.02,0.03-0.04,0.05-0.05l507.3-604.26c0.3-0.36,0.55-0.75,0.82-1.13
			c0.16-0.22,0.33-0.43,0.48-0.66C1050.06,362.35,1050.37,361.77,1050.65,361.18z M528,911.97L317.43,370.72h421.14L528,911.97z
			 M723.61,337.05H332.4L528,133.86l73.73,76.59L723.61,337.05z M830.58,145.19l167.83,191.86H784.54L830.58,145.19z M800.45,126.43
			l-46.46,193.63l-111.4-115.71l-75.01-77.92H800.45z M488.42,126.43L376.15,243.05l-74.13,77l-46.47-193.62H488.42z M225.43,145.19
			l46.04,191.86H57.6L225.43,145.19z M56.6,370.72h224.7l194.05,498.79L56.6,370.72z M580.65,869.51l194.06-498.79H999.4
			L580.65,869.51z"/>
	</g>
	<g id="Path_20196_1_">
		<path class="st0" d="M866.05,347.83c-66.68-17.38-118.76-69.46-136.14-136.14c-0.66-3.35-3.91-5.53-7.26-4.86
			c-2.46,0.49-4.38,2.41-4.86,4.86c-17.39,66.69-69.47,118.76-136.15,136.14c-3.34,0.68-5.5,3.94-4.82,7.28
			c0.49,2.43,2.39,4.33,4.82,4.83c66.69,17.38,118.77,69.46,136.15,136.14c0.66,3.35,3.91,5.53,7.26,4.86
			c2.46-0.49,4.38-2.41,4.86-4.86c17.38-66.68,69.46-118.76,136.14-136.14c3.34-0.68,5.5-3.94,4.82-7.28
			C870.38,350.23,868.48,348.33,866.05,347.83z"/>
		<path d="M723.87,517.9c-10.79,0-20.44-7.61-22.61-18.55c-15.61-59.75-65.27-113-141.42-128.64l0.47-33.67
			c79.75-17.97,125.35-68.88,141.18-129.6c1.59-8.19,8.68-15.29,17.85-17.13c12.45-2.47,24.6,5.66,27.08,18.09
			c15.58,59.67,68.01,115.48,140.96,128.65l-0.51,33.67c-74.07,15.07-124.84,68.89-140.67,129.61c-1.59,8.19-8.68,15.29-17.85,17.13
			C726.85,517.76,725.35,517.9,723.87,517.9z M713.74,491.52c-0.14,0.43-0.25,0.85-0.35,1.3
			C713.51,492.39,713.62,491.94,713.74,491.52z M733.81,490.86c0.09,0.33,0.17,0.66,0.26,0.99
			C734.01,491.5,733.92,491.17,733.81,490.86z M615.51,353.94c48.81,21.1,87.54,59.87,108.39,108.29
			c21.08-48.78,59.79-87.47,108.13-108.34c-48.54-20.95-87.36-59.8-108.25-108.35C702.67,294.38,663.91,333.1,615.51,353.94z
			 M586.76,363.89c-0.3,0.08-0.58,0.15-0.89,0.23C586.18,364.06,586.47,363.97,586.76,363.89z M861.8,343.65
			c-0.3,0.07-0.59,0.13-0.88,0.23C861.21,343.8,861.5,343.73,861.8,343.65z M584.98,343.44c0.39,0.12,0.8,0.21,1.2,0.33
			C585.78,343.64,585.39,343.52,584.98,343.44z M713.61,215.93c0.07,0.33,0.15,0.66,0.25,0.97
			C713.79,216.57,713.69,216.26,713.61,215.93z M734.3,214.96c-0.12,0.43-0.23,0.87-0.35,1.3
			C734.09,215.83,734.21,215.4,734.3,214.96z"/>
	</g>
</g>
<text transform="matrix(1 0 0 1 2044.2168 -439.6089)"><tspan x="0" y="0" style="font-family:'MyriadPro-Regular'; font-size:50px;">Cómo exportar favicons - 2021? </tspan><tspan x="0" y="60" style="font-family:'MyriadPro-Regular'; font-size:50px;"> </tspan><tspan x="0" y="120" style="font-family:'MyriadPro-Regular'; font-size:50px;">- En el workspace del centro, ponerlo con el menor espacio en blanco posible,  </tspan><tspan x="0" y="180" style="font-family:'MyriadPro-Regular'; font-size:50px;">para que se vea bien en las tabs de chrome y otros lugares </tspan><tspan x="0" y="240" style="font-family:'MyriadPro-Regular'; font-size:50px;">- El workspace externo va a servir para hacer maskable icons, que son  </tspan><tspan x="0" y="300" style="font-family:'MyriadPro-Regular'; font-size:50px;">redondeados automáticamente por diferentes sistemas operativos (círculo, óvalo,  </tspan><tspan x="0" y="360" style="font-family:'MyriadPro-Regular'; font-size:50px;">redondeado, etc)</tspan></text>
<text transform="matrix(1 0 0 1 1206.4346 -792)" style="font-family:'MyriadPro-Regular'; font-size:50px;">Lorem ipsum</text>
<circle class="st4" cx="-1266" cy="2075" r="528"/>
<g>
	<path class="st0" d="M-989.71,1748.37l202.74,231.76h-258.36L-989.71,1748.37z"/>
	<path class="st1" d="M-1268.44,1748.37l223.12,231.76l55.61-231.76H-1268.44z"/>
	<path class="st2" d="M-786.96,1980.14l-481.49,573.51l223.13-573.51H-786.96z"/>
	<path class="st2" d="M-1547.17,1748.37l-202.74,231.76h258.36L-1547.17,1748.37z"/>
	<path class="st3" d="M-1268.44,1748.37l-223.12,231.76l-55.61-231.76H-1268.44z"/>
	<path class="st2" d="M-1268.44,1748.37l-223.12,231.76h446.24L-1268.44,1748.37z"/>
	<g id="Path_20193_2_">
		<path class="st1" d="M-1491.57,1980.14l223.12,573.51l223.13-573.51H-1491.57z"/>
		<path d="M-1268.45,2569.63c-6.59,0-12.49-4.04-14.89-10.19l-223.12-573.52c-1.91-4.91-1.27-10.45,1.71-14.8
			c2.97-4.35,7.91-6.96,13.18-6.96h446.25c5.27,0,10.21,2.6,13.18,6.96c2.98,4.35,3.62,9.89,1.71,14.8l-223.13,573.52
			C-1255.95,2565.59-1261.87,2569.63-1268.45,2569.63z M-1468.21,1996.11l199.77,513.49l199.78-513.49H-1468.21z"/>
	</g>
	<g id="Path_20194_2_">
		<path class="st3" d="M-1749.92,1980.14l481.48,573.51l-223.12-573.51H-1749.92z"/>
		<path d="M-772.6,1987.05c0.05-0.11,0.12-0.21,0.17-0.32c0.01-0.01,0.01-0.03,0.01-0.04c0.3-0.67,0.55-1.35,0.76-2.05
			c0.01-0.03,0.02-0.06,0.03-0.1c1.02-3.56,0.79-7.44-0.79-10.95c-0.02-0.04-0.03-0.08-0.04-0.12c-0.01-0.03-0.02-0.06-0.04-0.09
			c-0.68-1.45-1.56-2.76-2.6-3.91l-202.61-231.62c-0.2-0.23-0.47-0.38-0.69-0.6c-0.67-0.68-1.37-1.31-2.14-1.86
			c-0.39-0.28-0.79-0.52-1.2-0.76c-0.76-0.44-1.55-0.81-2.37-1.12c-0.45-0.17-0.88-0.35-1.34-0.47c-0.91-0.25-1.85-0.39-2.8-0.48
			c-0.39-0.04-0.76-0.12-1.16-0.13c-0.11,0-0.21-0.04-0.31-0.04h-278.73h-0.01h-278.73c-0.12,0-0.23,0.04-0.35,0.04
			c-0.35,0.01-0.69,0.09-1.04,0.12c-0.99,0.09-1.97,0.23-2.91,0.5c-0.45,0.13-0.87,0.3-1.31,0.46c-0.83,0.31-1.62,0.68-2.38,1.12
			c-0.42,0.24-0.82,0.49-1.21,0.77c-0.77,0.54-1.46,1.17-2.13,1.85c-0.22,0.22-0.49,0.37-0.69,0.6l-202.61,231.62
			c-1.04,1.15-1.92,2.46-2.6,3.91c-0.01,0.03-0.02,0.06-0.04,0.09c-0.02,0.04-0.03,0.08-0.04,0.12c-1.58,3.51-1.81,7.39-0.79,10.95
			c0.01,0.03,0.02,0.06,0.03,0.1c0.21,0.7,0.46,1.39,0.76,2.05c0.01,0.01,0.01,0.03,0.01,0.04c0.05,0.11,0.12,0.21,0.17,0.32
			c0.27,0.56,0.56,1.12,0.9,1.65c0.14,0.22,0.3,0.42,0.45,0.63c0.25,0.36,0.49,0.73,0.78,1.07l481.27,573.27
			c0.01,0.02,0.03,0.03,0.04,0.05l0.17,0.2c0.09,0.11,0.21,0.18,0.3,0.29c0.6,0.68,1.26,1.31,1.98,1.89
			c0.29,0.23,0.58,0.43,0.88,0.63c0.31,0.22,0.59,0.47,0.93,0.67c0.2,0.12,0.43,0.16,0.64,0.27c0.82,0.44,1.67,0.79,2.55,1.08
			c0.38,0.12,0.75,0.28,1.13,0.38c1.23,0.3,2.48,0.49,3.75,0.5c0.02,0,0.04,0.01,0.07,0.01c0,0,0.01,0,0.01,0c0,0,0,0,0.01,0
			c0.02,0,0.04-0.01,0.07-0.01c1.27-0.01,2.52-0.2,3.75-0.5c0.38-0.1,0.75-0.25,1.13-0.38c0.88-0.29,1.73-0.64,2.55-1.08
			c0.21-0.11,0.43-0.15,0.64-0.27c0.33-0.2,0.61-0.45,0.93-0.67c0.3-0.21,0.59-0.41,0.88-0.63c0.72-0.58,1.38-1.21,1.98-1.89
			c0.09-0.11,0.21-0.18,0.3-0.29l0.17-0.2c0.01-0.02,0.03-0.03,0.04-0.05l481.28-573.27c0.29-0.34,0.52-0.71,0.78-1.07
			c0.15-0.21,0.31-0.41,0.45-0.63C-773.16,1988.17-772.87,1987.61-772.6,1987.05z M-1268.45,2509.59l-199.76-513.49h399.54
			L-1268.45,2509.59z M-1082.87,1964.16h-371.14l185.57-192.76l69.95,72.66L-1082.87,1964.16z M-981.39,1782.14l159.22,182.02
			h-202.9L-981.39,1782.14z M-1009.97,1764.34l-44.08,183.7l-105.69-109.78l-71.17-73.92H-1009.97z M-1305.99,1764.34
			l-106.51,110.64l-70.33,73.05l-44.08-183.69H-1305.99z M-1555.5,1782.14l43.68,182.02h-202.9L-1555.5,1782.14z M-1715.66,1996.11
			h213.17l184.1,473.2L-1715.66,1996.11z M-1218.49,2469.31l184.1-473.2h213.16L-1218.49,2469.31z"/>
	</g>
	<g id="Path_20196_2_">
		<path class="st0" d="M-947.74,1974.39c-63.26-16.49-112.67-65.9-129.16-129.16c-0.63-3.18-3.71-5.24-6.89-4.61
			c-2.33,0.46-4.15,2.28-4.61,4.61c-16.49,63.27-65.9,112.67-129.17,129.16c-3.17,0.65-5.22,3.74-4.58,6.91
			c0.47,2.31,2.27,4.11,4.58,4.58c63.27,16.49,112.68,65.89,129.17,129.16c0.63,3.18,3.71,5.24,6.89,4.61
			c2.33-0.46,4.15-2.28,4.61-4.61c16.49-63.26,65.9-112.67,129.16-129.16c3.17-0.65,5.22-3.74,4.58-6.91
			C-943.63,1976.66-945.43,1974.86-947.74,1974.39z"/>
		<path d="M-1082.62,2135.74c-10.24,0-19.39-7.22-21.45-17.6c-14.81-56.69-61.92-107.21-134.17-122.04l0.44-31.95
			c75.66-17.04,118.92-65.35,133.94-122.96c1.51-7.77,8.24-14.51,16.93-16.25c11.82-2.34,23.34,5.37,25.69,17.16
			c14.78,56.61,64.52,109.56,133.73,122.05l-0.48,31.95c-70.27,14.29-118.44,65.35-133.45,122.96c-1.51,7.77-8.24,14.51-16.93,16.25
			C-1079.8,2135.6-1081.21,2135.74-1082.62,2135.74z M-1092.23,2110.7c-0.13,0.41-0.24,0.81-0.33,1.23
			C-1092.45,2111.53-1092.34,2111.11-1092.23,2110.7z M-1073.19,2110.08c0.09,0.31,0.16,0.62,0.25,0.94
			C-1073,2110.69-1073.09,2110.38-1073.19,2110.08z M-1185.42,1980.19c46.3,20.01,83.05,56.8,102.83,102.73
			c20-46.28,56.72-82.98,102.58-102.78c-46.05-19.87-82.88-56.73-102.7-102.8C-1102.73,1923.68-1139.51,1960.41-1185.42,1980.19z
			 M-1212.7,1989.63c-0.28,0.08-0.55,0.14-0.84,0.22C-1213.25,1989.78-1212.97,1989.71-1212.7,1989.63z M-951.77,1970.43
			c-0.28,0.06-0.56,0.12-0.83,0.22C-952.32,1970.57-952.05,1970.5-951.77,1970.43z M-1214.39,1970.22c0.37,0.11,0.76,0.2,1.14,0.31
			C-1213.62,1970.41-1214,1970.3-1214.39,1970.22z M-1092.35,1849.25c0.06,0.31,0.14,0.62,0.24,0.92
			C-1092.19,1849.86-1092.27,1849.57-1092.35,1849.25z M-1072.73,1848.33c-0.11,0.41-0.22,0.83-0.33,1.23
			C-1072.92,1849.16-1072.81,1848.76-1072.73,1848.33z"/>
	</g>
</g>
</svg>
